<svg xmlns="http://www.w3.org/2000/svg" width="25.261" height="25.261" viewBox="0 0 25.261 25.261">
  <g id="post" transform="translate(0)">
    <path id="Path_16" data-name="Path 16" d="M23.419,169.333H1.842A1.851,1.851,0,0,0,0,171.175v13.157a1.851,1.851,0,0,0,1.842,1.842H23.419a1.851,1.851,0,0,0,1.842-1.842V171.175A1.851,1.851,0,0,0,23.419,169.333Zm-1.316,5v6.841a1.844,1.844,0,0,1-1.842,1.842H14.472a1.844,1.844,0,0,1-1.842-1.842v-6.841a1.844,1.844,0,0,1,1.842-1.842h5.789A1.844,1.844,0,0,1,22.1,174.333ZM9.736,178.28H3.947a.789.789,0,0,1,0-1.579H9.736a.789.789,0,0,1,0,1.579Zm.789,2.368a.8.8,0,0,1-.789.789H3.947a.789.789,0,1,1,0-1.579H9.736A.8.8,0,0,1,10.525,180.648Zm-.789-5.526H3.947a.789.789,0,1,1,0-1.579H9.736a.789.789,0,1,1,0,1.579Z" transform="translate(0 -160.913)" fill="#535353"/>
    <path id="Path_17" data-name="Path 17" d="M23.419,0H1.842A1.844,1.844,0,0,0,0,1.842V4.473A1.844,1.844,0,0,0,1.842,6.315H23.419a1.844,1.844,0,0,0,1.842-1.842V1.842A1.844,1.844,0,0,0,23.419,0Z" fill="#535353"/>
  </g>
</svg>
