<svg xmlns="http://www.w3.org/2000/svg" width="24.636" height="29.515" viewBox="0 0 24.636 29.515">
  <g id="_02-ball" data-name="02-ball" transform="translate(0.261)">
    <g id="Glyph" transform="translate(-0.261 0)">
      <path id="Path_23" data-name="Path 23" d="M41.838,59.676A9.838,9.838,0,1,0,32,49.838a9.838,9.838,0,0,0,9.838,9.838Zm4.919-14.757a1.23,1.23,0,1,1-1.23,1.23A1.23,1.23,0,0,1,46.757,44.919Zm-11.416,4.2a2.19,2.19,0,0,0,2.172-2.2.307.307,0,0,1,.615,0,2.19,2.19,0,0,0,2.172,2.2.307.307,0,0,1,0,.615,2.19,2.19,0,0,0-2.172,2.2.307.307,0,0,1-.615,0,2.19,2.19,0,0,0-2.172-2.2.307.307,0,1,1,0-.615Z" transform="translate(-27.041 -33.851)" fill="#535353"/>
      <path id="Path_24" data-name="Path 24" d="M62.046,3.125a2.19,2.19,0,0,1,2.172,2.2.307.307,0,1,0,.615,0,2.19,2.19,0,0,1,2.172-2.2.307.307,0,0,0,0-.615,2.19,2.19,0,0,1-2.172-2.2.307.307,0,1,0-.615,0,2.19,2.19,0,0,1-2.172,2.2.307.307,0,1,0,0,.615Z" transform="translate(-52.208 0)" fill="#535353"/>
      <path id="Path_25" data-name="Path 25" d="M5.313,40.817a.307.307,0,0,0-.307-.307,2.19,2.19,0,0,1-2.172-2.2.307.307,0,1,0-.615,0,2.19,2.19,0,0,1-2.172,2.2.307.307,0,0,0,0,.615,2.19,2.19,0,0,1,2.172,2.2.307.307,0,1,0,.615,0,2.19,2.19,0,0,1,2.172-2.2A.307.307,0,0,0,5.313,40.817Z" transform="translate(0.261 -32.159)" fill="#535353"/>
      <path id="Path_26" data-name="Path 26" d="M49.3,157.2a11.067,11.067,0,0,1-14.915,0l-2.021,2.02a1.23,1.23,0,0,0-.36.87v1.23a1.23,1.23,0,0,0,1.23,1.23H50.447a1.23,1.23,0,0,0,1.23-1.23v-1.23a1.23,1.23,0,0,0-.36-.87Z" transform="translate(-27.041 -133.035)" fill="#535353"/>
    </g>
  </g>
</svg>
