<svg id="followers" xmlns="http://www.w3.org/2000/svg" width="25.46" height="25.701" viewBox="0 0 25.46 25.701">
  <path id="Path_18" data-name="Path 18" d="M401.886,2.126H400.5V.753a.753.753,0,1,0-1.506,0V2.126h-1.384a.753.753,0,0,0,0,1.506H399V5.006a.753.753,0,1,0,1.506,0V3.632h1.384a.753.753,0,0,0,0-1.506Z" transform="translate(-377.178 0)" fill="#535353"/>
  <path id="Path_19" data-name="Path 19" d="M4.333,314.237c0-.2.009-.4.024-.6a5.6,5.6,0,0,1-2.683-1.62A4.994,4.994,0,0,0,0,315.754v6.306H4.333Z" transform="translate(0 -296.359)" fill="#535353"/>
  <path id="Path_20" data-name="Path 20" d="M39.749,159.814a6.411,6.411,0,0,1-.968-3.394c0-.134,0-.267.013-.4a4.066,4.066,0,0,0-1.9,7.9A7.7,7.7,0,0,1,39.749,159.814Z" transform="translate(-32.269 -148.125)" fill="#535353"/>
  <path id="Path_21" data-name="Path 21" d="M164.719,76.337a4.962,4.962,0,1,1,4.983-4.962A4.978,4.978,0,0,1,164.719,76.337Z" transform="translate(-151.84 -63.08)" fill="#535353"/>
  <path id="Path_22" data-name="Path 22" d="M127.874,256.369a6.308,6.308,0,0,1-9.012,0,6.189,6.189,0,0,0-2.535,5.009V269.2h14.082v-7.823A6.189,6.189,0,0,0,127.874,256.369Z" transform="translate(-110.488 -243.5)" fill="#535353"/>
</svg>
