<svg xmlns="http://www.w3.org/2000/svg" width="23.261" height="23.261" viewBox="0 0 23.261 23.261">
  <path id="Path_31" data-name="Path 31" d="M3,5.585V23.676a2.584,2.584,0,0,0,2.585,2.585H23.676a2.592,2.592,0,0,0,2.585-2.585V5.585A2.592,2.592,0,0,0,23.676,3H5.585A2.584,2.584,0,0,0,3,5.585Zm15.507,5.169A3.877,3.877,0,1,1,14.63,6.877,3.872,3.872,0,0,1,18.507,10.754ZM6.877,21.092c0-2.585,5.169-4.006,7.754-4.006s7.754,1.422,7.754,4.006v1.292H6.877Z" transform="translate(-3 -3)" fill="#535353"/>
</svg>
