<svg xmlns="http://www.w3.org/2000/svg" width="38.519" height="30.815" viewBox="0 0 38.519 30.815">
  <path id="Path_35" data-name="Path 35" d="M20.3,13.63a4.815,4.815,0,1,0,4.815,4.815A4.817,4.817,0,0,0,20.3,13.63ZM36.667,4H5.852A3.863,3.863,0,0,0,2,7.852V30.963a3.863,3.863,0,0,0,3.852,3.852H36.667a3.863,3.863,0,0,0,3.852-3.852V7.852A3.863,3.863,0,0,0,36.667,4ZM30.485,31.368l-5.6-5.6a8.54,8.54,0,0,1-4.6,1.348,8.723,8.723,0,1,1,7.338-4.064l5.6,5.585-2.735,2.735Z" transform="translate(-2 -4)" fill="#20a593"/>
</svg>
