<svg xmlns="http://www.w3.org/2000/svg" width="160.434" height="34" viewBox="0 0 160.434 34">
  <g id="Group_26" data-name="Group 26" transform="translate(-278 -6)">
    <text id="en" transform="translate(278 32)" fill="#a2a2a2" font-size="21" font-family="RussoOne-Regular, Russo One"><tspan x="0" y="0">en</tspan></text>
    <text id="Chant" transform="translate(305 32)" fill="#20a593" font-size="28" font-family="RussoOne-Regular, Russo One"><tspan x="0" y="0">Chant</tspan></text>
    <g id="iconfinder__hand_share_aims_request_gesture_palm_4213422" transform="translate(399.007 13.433)">
      <path id="Path_14" data-name="Path 14" d="M46.695,52.17,29.108,59.623a4.986,4.986,0,0,1-4.116-.094l-8.669-4.366L15.2,57.378l8.7,4.366a7.508,7.508,0,0,0,3.274.748,7.1,7.1,0,0,0,2.9-.592l17.587-7.422a3.8,3.8,0,0,0,2.027-2.089,3.686,3.686,0,0,0-.094-2.931,3.83,3.83,0,0,0-4.958-1.84l-1.091.468h0l-5.3,2.245.967,2.308,5.3-2.245h0l1.091-.468a1.306,1.306,0,0,1,1.715.592,1.164,1.164,0,0,1,.031.967A1.183,1.183,0,0,1,46.695,52.17Z" transform="translate(-10.52 -43.744)" fill="#20a593"/>
      <path id="Path_15" data-name="Path 15" d="M2.939,42.433C3.307,41.484,5.871,40,5.871,40a8,8,0,0,1,5.831-1.59,7.643,7.643,0,0,1,2.37.655l8.076,3.586a1.1,1.1,0,0,1,.53.468h0a1.316,1.316,0,0,1,.094,1.185,2.743,2.743,0,0,1-.187.312,1.249,1.249,0,0,1-1.434.312s-5.937-2.846-6.237-2.775a5.59,5.59,0,0,0-1.029,2.276c.062.186,6.237,2.775,6.237,2.775a3.876,3.876,0,0,0,1.528.343,3.708,3.708,0,0,0,2.806-1.279,3.769,3.769,0,0,0,.624-.935,3.811,3.811,0,0,0-.249-3.524,3.706,3.706,0,0,0-1.622-1.4L15.1,36.789A10.623,10.623,0,0,0,4.374,38.036S1.011,39.845.445,41.248s0,13.689,0,13.689H2.939S2.572,43.383,2.939,42.433Z" transform="translate(-0.193 -35.878)" fill="#20a593"/>
    </g>
  </g>
</svg>
